<svg viewBox="133 66 226 183" xmlns="http://www.w3.org/2000/svg">
  <rect x="133" y="66" width="226" height="183" fill="black"/>
  <g fill="white">
    <path d="M243.464,160.473 C237.524,166.536 231.83,172.347 225.235,179.078 C225.235,154.733 225.235,131.721 225.235,108.222 C196.558,108.222 168.355,108.222 138.75,108.222 C140.834,106.058 141.994,104.809 143.202,103.606 C152.648,94.203 161.972,84.67 171.661,75.524 C173.705,73.595 177.088,72.108 179.87,72.082 C228.359,71.625 276.85,71.421 325.34,71.18 C334.252,71.136 343.163,71.174 352.075,71.174 C352.498,71.75 352.921,72.327 353.345,72.903 C350.719,75.028 347.909,76.964 345.502,79.312 C337.223,87.387 329.005,95.528 320.935,103.811 C318.069,106.753 315.047,108.144 310.832,108.089 C294.863,107.878 278.89,108.004 262.475,108.004 C262.475,117.335 262.344,126.284 262.531,135.227 C262.621,139.489 261.572,142.786 258.218,145.761 C253.119,150.285 248.52,155.373 243.464,160.473Z"/>
    <path d="M277.612,147.61 C284.492,140.437 291.122,133.515 297.752,126.593 C298.2,126.864 298.649,127.134 299.098,127.405 C299.098,141.106 299.141,154.807 299.017,168.507 C299.007,169.635 298.082,170.982 297.204,171.842 C273.096,195.477 248.939,219.062 225.361,243.753 C225.242,242.558 225.021,241.365 225.018,240.17 C224.991,228.353 224.803,216.53 225.147,204.723 C225.224,202.08 226.555,198.861 228.4,196.978 C244.58,180.467 261.008,164.2 277.612,147.61Z"/>
  </g>
</svg>
